<svg xmlns="http://www.w3.org/2000/svg" width="1200" height="630" viewBox="0 0 1200 630">
  <defs>
    <linearGradient id="bg" x1="0" y1="0" x2="1" y2="1">
      <stop stop-color="#09090b"/>
      <stop offset=".55" stop-color="#1c1236"/>
      <stop offset="1" stop-color="#713cc8"/>
    </linearGradient>
    <linearGradient id="text" x1="0" y1="0" x2="1" y2="0">
      <stop stop-color="#c8ff36"/>
      <stop offset=".5" stop-color="#69e5ff"/>
      <stop offset="1" stop-color="#ff75b8"/>
    </linearGradient>
  </defs>
  <rect width="1200" height="630" fill="url(#bg)"/>
  <g opacity=".12" stroke="#fff">
    <path d="M0 105h1200M0 210h1200M0 315h1200M0 420h1200M0 525h1200"/>
    <path d="M120 0v630M240 0v630M360 0v630M480 0v630M600 0v630M720 0v630M840 0v630M960 0v630M1080 0v630"/>
  </g>
  <g fill="#fff" transform="translate(90 80) rotate(-8 30 30)">
    <rect width="26" height="26" rx="7"/>
    <rect x="34" width="26" height="26" rx="7" opacity=".55"/>
    <rect y="34" width="26" height="26" rx="7" opacity=".55"/>
    <rect x="34" y="34" width="26" height="26" rx="7"/>
  </g>
  <text x="175" y="122" fill="#fff" font-family="Arial,sans-serif" font-size="42" font-weight="700">playground</text>
  <text x="90" y="310" fill="#fff" font-family="Arial,sans-serif" font-size="88" font-weight="700">Your next favorite game</text>
  <text x="90" y="408" fill="url(#text)" font-family="Arial,sans-serif" font-size="92" font-weight="700">is one swipe away.</text>
  <text x="92" y="505" fill="#aaa8b1" font-family="Arial,sans-serif" font-size="31">Swipe. Play. Repeat.</text>
</svg>
